<svg width="180px" height="28px" viewBox="0 0 180 28" version="1.1" xmlns="http://www.w3.org/2000/svg" xmlns:xlink="http://www.w3.org/1999/xlink">
  <defs>
    <rect id="path-1" x="0" y="0" width="414" height="896"></rect>
  </defs>
  <g id="Total-AV" stroke="none" stroke-width="1" fill="none" fill-rule="evenodd">
    <g id="Mobile-Lead-Capture:-Android" transform="translate(-187.000000, -217.000000)">
      <g id="Title" transform="translate(7.000000, 88.000000)">
        <g id="Android" transform="translate(180.000000, 129.000000)" fill-rule="nonzero">
          <path d="M166.632411,8.28523271 L170.704885,1.23868383 C170.934697,0.843651822 170.795742,0.341850744 170.405594,0.112303463 C170.01545,-0.11724011 169.507726,0.0162151966 169.28326,0.411249062 L165.157341,7.54855044 C162.009456,6.11254738 158.466085,5.31180441 154.655484,5.31180441 C150.844887,5.31180441 147.301514,6.11254738 144.153629,7.54855044 L140.02771,0.411249062 C139.797898,0.0162151966 139.29552,-0.11724011 138.90003,0.112303463 C138.504538,0.341850744 138.370927,0.843651822 138.600739,1.23868383 L142.673215,8.28523271 C135.650601,12.0861013 130.894034,19.186032 130.1084,27.4977578 L179.20257,27.4977578 C178.416935,19.186032 173.660366,12.0861013 166.632411,8.28523271 Z M143.355024,20.7174888 C142.208842,20.7174888 141.283288,19.7865465 141.283288,18.6457408 C141.283288,17.4995491 142.214224,16.573991 143.355024,16.573991 C144.501206,16.573991 145.426786,17.5049315 145.426786,18.6457408 C145.432165,19.7865465 144.501206,20.7174888 143.355024,20.7174888 Z M165.955924,20.7174888 C164.809744,20.7174888 163.884185,19.7865465 163.884185,18.6457408 C163.884185,17.4995491 164.815122,16.573991 165.955924,16.573991 C167.102108,16.573991 168.027682,17.5049315 168.027682,18.6457408 C168.033043,19.7865465 167.102108,20.7174888 165.955924,20.7174888 Z" id="path80319" fill="#32DE84"></path>
          <path d="M86.9200112,8.98823351 C92.4693,8.98823351 96.5359043,13.303812 96.5359043,18.5125577 C96.5359043,22.7573089 93.3778165,27.9566118 86.9101796,27.9566118 C81.6621704,27.9566118 77.4309752,24.0486919 77.4309752,18.4772695 C77.4309752,12.3632929 82.3985342,8.98823351 86.9200112,8.98823351 Z M8.75683549,8.99429046 C12.7482233,8.99429046 14.5487532,11.7178835 14.5487532,11.7178835 L14.5487532,11.7178835 L14.5487532,9.40800603 L18.6168874,9.40800603 L18.6168874,27.6111779 L15.7209286,27.6111779 C15.0725723,27.6111779 14.5487532,26.9930311 14.5487532,26.4390026 L14.5487532,26.4390026 L14.5487532,25.2668273 C14.5487532,25.2668273 12.7631839,27.9559346 8.75683549,27.9559346 C3.90330508,27.9559346 -1.42108547e-14,24.0456571 -1.42108547e-14,18.5095982 C-1.42108547e-14,12.4539464 4.43943863,8.99429046 8.75683549,8.99429046 Z M61.2978234,0.306426371 L61.2978234,27.6111779 L58.4018645,27.6111779 C57.7535082,27.6111779 57.2296892,26.9930311 57.2296892,26.4390026 L57.2296892,26.4390026 L57.2296892,25.2668273 C57.2296892,25.2668273 55.4441072,27.9559346 51.4377589,27.9559346 C46.584241,27.9559346 42.6809359,24.0456571 42.6809359,18.5095982 C42.6809359,12.4539464 47.1203746,8.99429046 51.4377589,8.99429046 C55.4291467,8.99429046 57.2296892,11.717871 57.2296892,11.717871 L57.2296892,11.717871 L57.2296892,0.306426371 L61.2978234,0.306426371 Z M125.560546,0.306426371 L125.560546,27.6111779 L122.664587,27.6111779 C122.01623,27.6111779 121.492411,26.9930311 121.492411,26.4390026 L121.492411,26.4390026 L121.492411,25.2668273 C121.492411,25.2668273 119.706836,27.9559346 115.7005,27.9559346 C110.84697,27.9559346 106.943664,24.0456571 106.943664,18.5095982 C106.943664,12.4539464 111.383103,8.99429046 115.7005,8.99429046 C119.691888,8.99429046 121.492411,11.717871 121.492411,11.717871 L121.492411,11.717871 L121.492411,0.306426371 L125.560546,0.306426371 Z M32.6540484,8.9887602 C37.1722398,8.9887602 39.5781255,12.5904596 39.5781255,15.9584086 L39.5781255,27.6111904 L36.751113,27.6111904 C36.0098334,27.6111904 35.5099913,26.9906359 35.5099913,26.3700688 L35.5099913,16.8547735 C35.5099913,14.9879182 34.3661821,12.7206776 31.7208653,12.7206776 C28.8664899,12.7206776 27.1668589,15.4182622 27.1668589,17.95799 L27.1668589,27.6111904 L24.2709,27.6111904 C23.6458811,27.6111904 23.0987247,27.1628888 23.0987247,26.4390151 L23.0987247,9.40801857 L27.1668589,9.40801857 L27.1668589,11.6606372 C28.0887056,10.2750268 29.889687,8.9887602 32.6540484,8.9887602 Z M74.7433476,9.20116705 C75.4916623,9.20116705 76.1913333,9.33907225 76.1913333,9.33907225 L76.1913333,13.5450991 C76.1913333,13.5450991 75.3176662,13.2003424 74.2606857,13.2003424 C71.4063103,13.2003424 69.8477948,15.897927 69.8477948,18.4376673 L69.8477948,27.6111904 L66.9518359,27.6111904 C66.326817,27.6111904 65.7796606,27.1628888 65.7796606,26.4390151 L65.7796606,9.40801857 L69.8477948,9.40801857 L69.8477948,12.4418826 C70.5480176,10.7423018 72.0590306,9.20116705 74.7433476,9.20116705 Z M103.771895,9.40801857 L103.771895,27.6111904 L100.875936,27.6111904 C100.250917,27.6111904 99.703761,27.1628888 99.703761,26.4390151 L99.703761,9.40801857 L103.771895,9.40801857 Z M9.48149925,12.7164641 C6.44289497,12.7164641 4.13883616,15.1614001 4.13883616,18.4690556 C4.13883616,22.1333309 6.81621838,24.2980173 9.48903594,24.2980173 C12.6864249,24.2980173 14.8999682,21.4778015 14.8999682,18.5082439 C14.8999682,15.8421855 13.0356334,12.7164641 9.48149925,12.7164641 Z M52.1624352,12.7164641 C49.1238183,12.7164641 46.8197721,15.1613876 46.8197721,18.4690556 C46.8197721,22.1333309 49.4971543,24.2980173 52.1699719,24.2980173 C55.3673483,24.2980173 57.5809041,21.4778015 57.5809041,18.5082439 C57.5809041,15.8421855 55.7165694,12.7164641 52.1624352,12.7164641 Z M116.425164,12.7164641 C113.386559,12.7164641 111.082501,15.1613876 111.082501,18.4690556 C111.082501,22.1333309 113.759883,24.2980173 116.4327,24.2980173 C119.630089,24.2980173 121.843626,21.4778015 121.843626,18.5082439 C121.843626,15.8421855 119.979298,12.7164641 116.425164,12.7164641 Z M86.9348087,12.787304 C84.0522428,12.787304 81.4998995,15.0528893 81.4998995,18.5431309 C81.4998995,21.9761513 84.183464,24.2227381 86.944101,24.2227381 C89.917985,24.2227381 92.3938202,21.7252584 92.3938202,18.4887187 C92.3938202,15.3073562 90.0615333,12.787304 86.9348087,12.787304 Z M101.705807,0.100464145 C103.191826,0.100464145 104.396483,1.3051208 104.396483,2.7911401 C104.396483,4.2771594 103.191826,5.48181605 101.705807,5.48181605 C100.219787,5.48181605 99.0151306,4.2771594 99.0151306,2.7911401 C99.0151306,1.3051208 100.219787,0.100464145 101.705807,0.100464145 Z" id="Combined-Shape" fill="#000000"></path>
        </g>
        <text id="for-your" font-family="Roboto-Regular, Roboto" font-size="35" font-weight="normal" line-spacing="45" fill="#000000">
          <tspan x="50.8608398" y="153">for your</tspan>
        </text>
      </g>
    </g>
  </g>
</svg>
